PathFileType	4	(X/Y/Z)	Walk9.trc
DataRate	CameraRate	NumFrames	NumMarkers	Units	OrigDataRate	OrigDataStartFrame	OrigNumFrames
200.000000	200.000000	8	59	mm	200.000000	508	546
Frame#	Times		LBHD		C7		RBack		LPSI		RPSI		RCAR		LElbowM		LTB1		LLFC		T10		LUA1		RElbowM		CLAV		RFA1		LCAR		RUA1		LFA1		RACR1		LACR1		LWRU		RFHD		RTH3		LWRR		RTH2		RTB1		RTB4		RTB3		RToe		RWRU		RMT1		RBHD		LFHD		RTH4		RLFC		RCAL		RWRR		RMT5		RTH1		LTH3		LTH4		RTB2		LTH1		LElbow		RMMAL		LMT1		STRN		RElbow		LTH2		LTB2		RASI		LTB3		RLMAL		LCAL		LToe		LASI		LLMAL		LMT5		LTB4		LMMAL
			X1	Y1	Z1	X2	Y2	Z2	X3	Y3	Z3	X4	Y4	Z4	X5	Y5	Z5	X6	Y6	Z6	X7	Y7	Z7	X8	Y8	Z8	X9	Y9	Z9	X10	Y10	Z10	X11	Y11	Z11	X12	Y12	Z12	X13	Y13	Z13	X14	Y14	Z14	X15	Y15	Z15	X16	Y16	Z16	X17	Y17	Z17	X18	Y18	Z18	X19	Y19	Z19	X20	Y20	Z20	X21	Y21	Z21	X22	Y22	Z22	X23	Y23	Z23	X24	Y24	Z24	X25	Y25	Z25	X26	Y26	Z26	X27	Y27	Z27	X28	Y28	Z28	X29	Y29	Z29	X30	Y30	Z30	X31	Y31	Z31	X32	Y32	Z32	X33	Y33	Z33	X34	Y34	Z34	X35	Y35	Z35	X36	Y36	Z36	X37	Y37	Z37	X38	Y38	Z38	X39	Y39	Z39	X40	Y40	Z40	X41	Y41	Z41	X42	Y42	Z42	X43	Y43	Z43	X44	Y44	Z44	X45	Y45	Z45	X46	Y46	Z46	X47	Y47	Z47	X48	Y48	Z48	X49	Y49	Z49	X50	Y50	Z50	X51	Y51	Z51	X52	Y52	Z52	X53	Y53	Z53	X54	Y54	Z54	X55	Y55	Z55	X56	Y56	Z56	X57	Y57	Z57	X58	Y58	Z58	X59	Y59	Z59

508	2.54	848.57	1486.2	-129.52	841.49	1353.2	-60.999	823.66	1255.7	70.186	806.69	905.89	-88.02	803.58	905.07	11.876	1009.3	748.36	252.22	868.42	971.21	-248.36	951.06	341.8	-89.103	922.25	453.8	-169.31	828.33	1088.8	-57.178	925.05	1121.1	-303.54	873.33	965.29	144.05	972.23	1285	-54.225	928.77	879.32	233.14	1009.6	730.62	-375.71	932.26	1148.1	178.91	919.76	883.94	-347.19	919.47	1300.8	94.417	925.02	1295.3	-222.49	954.94	764.39	-365.03	1015.5	1529.6	-21.34	1029.4	560.78	133.48	1017.1	769.85	-326.84	1069.9	679.36	133.75	1075.1	340.58	51.2	1029.3	261.51	48.793	997.18	173.76	44.083	1060.8	35.32	77.249	958.52	770.5	224.22	1020.8	65.652	48.586	840.28	1489.8	-6.2545	1016.5	1522.1	-99.177	999.24	650.17	151.17	1074.6	472.45	126.82	866.31	103.75	37.81	1028.2	787	201.81	985.4	60.023	93.054	972.93	734.36	171.29	959.04	561.72	-178.46	965.34	653.95	-201.55	994.85	273.71	111.84	967.56	743.99	-229.95	891.41	1003.9	-315.82	947.14	113.36	3.0284	995.91	48.422	-64.609	1040.6	1182.5	-56.071	919.57	1005.4	218.44	1025.5	665.35	-160.4	908.62	248.69	-147.92	1027	883.77	102.17	935.99	160.36	-72.837	923.63	112.15	79.648	841.45	26.837	-66.533	1051.2	25.955	-75.094	1006.1	879.69	-180.46	883.53	60.919	-109.97	971.65	27.246	-116.79	934.88	251.59	-82.076	905.92	68.708	-33.834
509	2.545	854.19	1485.8	-129.74	847.07	1352.9	-61.322	828.94	1255.3	69.727	811.78	905.78	-87.97	808.94	904.74	11.971	1012.4	747.68	252.73	874.87	970.58	-249.13	952.85	341.46	-89.258	924.65	453.6	-169.43	833.7	1088.5	-57.548	931.3	1120.8	-303.98	877.76	964.97	143.59	977.74	1284.5	-54.364	932.35	878.89	233.13	1017.8	730.81	-376.01	936.83	1147.6	178.76	927	883.62	-347.79	924.73	1300.3	94.173	930.86	1294.9	-222.74	962.9	764.31	-365.57	1021	1529.3	-21.275	1037.1	560.94	132.44	1024.8	770.03	-327.1	1076.6	679.89	132.68	1085.7	340.91	49.761	1042.3	260.53	47.774	1012.7	171.87	43.353	1080.7	35.673	76.761	961.88	770	224.45	1039.6	64.727	48.206	845.74	1489.3	-6.4576	1022	1521.8	-99.113	1006.3	650.07	150.39	1082.7	472.85	125.27	883.87	97.965	37.879	1031.7	786.26	202.48	1004.5	57.965	92.787	979.23	733.98	170.78	962.25	561.24	-178.61	969.19	653.39	-201.73	1008	271.75	111.1	972.08	743.42	-230.18	897.95	1003.4	-316.46	964.26	110.02	2.774	995.96	48.261	-64.496	1046	1182	-56.126	923.5	1005	218.27	1029.4	664.42	-160.55	909.79	248.54	-148.02	1032.5	883.3	101.65	936.68	160.11	-72.883	941.14	108.14	79.57	841.45	26.893	-66.512	1051.3	25.984	-75.077	1010.4	877.89	-181.45	883.73	60.93	-109.91	971.62	27.188	-116.76	936.05	251.32	-82.125	906.07	68.665	-33.742
510	2.55	859.83	1485.4	-129.96	852.67	1352.5	-61.638	834.23	1254.9	69.279	816.88	905.6	-87.872	814.32	904.35	12.099	1015.5	746.97	253.23	881.31	969.9	-249.9	954.69	341.09	-89.387	927.09	453.38	-169.52	839.09	1088.1	-57.902	937.59	1120.4	-304.39	882.17	964.61	143.16	983.26	1284	-54.496	935.96	878.41	233.11	1026	730.95	-376.3	941.42	1147.1	178.61	934.26	883.25	-348.38	930	1299.7	93.937	936.72	1294.5	-222.98	970.86	764.18	-366.09	1026.4	1528.9	-21.207	1044.6	561.03	131.4	1032.6	770.16	-327.33	1083.3	680.31	131.6	1096.3	341.22	48.343	1055.3	259.6	46.778	1028.3	170.1	42.647	1100.4	36.188	76.272	965.26	769.47	224.65	1058.4	63.958	47.827	851.21	1488.9	-6.6619	1027.6	1521.5	-99.045	1013.2	649.92	149.63	1090.6	473.17	123.74	901.59	92.349	37.926	1035.2	785.49	203.15	1023.6	56.082	92.522	985.57	733.55	170.3	965.49	560.74	-178.74	973.07	652.79	-201.91	1021.1	269.86	110.35	976.63	742.81	-230.41	904.5	1003	-317.1	981.45	106.82	2.5249	996.03	48.087	-64.358	1051.4	1181.4	-56.174	927.45	1004.5	218.13	1033.3	663.47	-160.69	911	248.37	-148.09	1038	882.74	101.08	937.4	159.86	-72.905	958.73	104.3	79.489	841.46	26.963	-66.475	1051.4	25.994	-75.048	1014.8	876.09	-182.53	883.95	60.943	-109.83	971.6	27.135	-116.72	937.26	251.04	-82.151	906.23	68.618	-33.632
511	2.555	865.47	1484.9	-130.19	858.27	1352.1	-61.944	839.53	1254.4	68.841	822.01	905.36	-87.728	819.72	903.92	12.258	1018.6	746.24	253.73	887.76	969.17	-250.67	956.56	340.7	-89.489	929.58	453.14	-169.59	844.48	1087.7	-58.239	943.92	1119.9	-304.79	886.59	964.19	142.76	988.79	1283.5	-54.621	939.58	877.9	233.09	1034.1	731.06	-376.56	946.03	1146.6	178.47	941.52	882.84	-348.96	935.29	1299.2	93.71	942.58	1294	-223.22	978.82	764	-366.59	1031.9	1528.5	-21.137	1052	561.03	130.36	1040.3	770.25	-327.56	1089.9	680.6	130.51	1106.8	341.53	46.95	1068.3	258.72	45.806	1043.8	168.45	41.968	1120	36.878	75.784	968.65	768.92	224.83	1077.1	63.356	47.451	856.69	1488.3	-6.8656	1033.2	1521.1	-98.974	1020.2	649.7	148.89	1098.4	473.39	122.23	919.44	86.923	37.95	1038.7	784.71	203.82	1042.6	54.391	92.261	991.95	733.07	169.85	968.75	560.22	-178.85	976.99	652.17	-202.08	1034.1	268.05	109.61	981.21	742.15	-230.65	911.07	1002.4	-317.74	998.71	103.78	2.2809	996.1	47.903	-64.196	1056.8	1180.7	-56.216	931.43	1004	218	1037.3	662.49	-160.82	912.25	248.2	-148.14	1043.5	882.09	100.44	938.15	159.59	-72.902	976.39	100.64	79.4	841.48	27.048	-66.421	1051.5	25.982	-75.003	1019.2	874.3	-183.71	884.19	60.959	-109.74	971.59	27.089	-116.66	938.51	250.74	-82.153	906.4	68.568	-33.506
512	2.56	871.13	1484.4	-130.43	863.9	1351.6	-62.243	844.85	1253.9	68.413	827.15	905.06	-87.537	825.15	903.43	12.449	1021.8	745.48	254.23	894.21	968.4	-251.44	958.47	340.3	-89.563	932.12	452.88	-169.65	849.88	1087.2	-58.558	950.28	1119.3	-305.17	891	963.74	142.4	994.34	1282.9	-54.739	943.24	877.34	233.07	1042.2	731.12	-376.81	950.67	1146	178.34	948.79	882.4	-349.53	940.6	1298.5	93.491	948.46	1293.5	-223.44	986.77	763.78	-367.06	1037.4	1528	-21.065	1059.3	560.94	129.34	1048	770.31	-327.76	1096.5	680.76	129.44	1117.1	341.84	45.592	1081.2	257.9	44.862	1059.4	166.93	41.316	1139.6	37.754	75.294	972.07	768.34	224.97	1095.7	62.935	47.076	862.18	1487.8	-7.0672	1038.9	1520.7	-98.9	1027.1	649.42	148.16	1106	473.52	120.76	937.4	81.707	37.948	1042.3	783.9	204.49	1061.7	52.904	91.999	998.38	732.54	169.43	972.05	559.69	-178.95	980.92	651.52	-202.25	1047.1	266.31	108.86	985.8	741.47	-230.89	917.65	1001.8	-318.36	1016	100.91	2.0397	996.17	47.711	-64.014	1062.3	1180.1	-56.253	935.43	1003.5	217.9	1041.3	661.49	-160.96	913.54	248.01	-148.17	1049.1	881.37	99.736	938.91	159.32	-72.874	994.1	97.18	79.3	841.49	27.145	-66.351	1051.6	25.947	-74.942	1023.7	872.53	-184.96	884.43	60.979	-109.63	971.57	27.051	-116.6	939.79	250.43	-82.132	906.58	68.516	-33.367
513	2.565	876.8	1483.9	-130.67	869.53	1351.1	-62.533	850.18	1253.4	67.995	832.3	904.71	-87.303	830.6	902.9	12.669	1025	744.71	254.72	900.66	967.58	-252.21	960.42	339.87	-89.608	934.7	452.61	-169.69	855.29	1086.7	-58.857	956.68	1118.7	-305.52	895.4	963.24	142.08	999.9	1282.3	-54.85	946.92	876.74	233.06	1050.4	731.15	-377.04	955.34	1145.4	178.21	956.08	881.91	-350.08	945.93	1297.9	93.281	954.35	1292.9	-223.66	994.72	763.53	-367.52	1042.9	1527.5	-20.991	1066.4	560.76	128.32	1055.8	770.32	-327.95	1103.1	680.79	128.39	1127.4	342.14	44.274	1094	257.14	43.948	1074.9	165.56	40.692	1159	38.826	74.796	975.52	767.72	225.11	1114.3	62.704	46.696	867.69	1487.2	-7.2654	1044.5	1520.2	-98.821	1033.9	649.07	147.45	1113.4	473.55	119.33	955.45	76.717	37.922	1045.8	783.07	205.15	1080.7	51.635	91.732	1004.9	731.97	169.03	975.37	559.13	-179.03	984.87	650.84	-202.41	1060	264.65	108.11	990.39	740.76	-231.13	924.25	1001.2	-318.98	1033.3	98.223	1.7952	996.25	47.515	-63.814	1067.7	1179.3	-56.284	939.47	1002.9	217.81	1045.3	660.46	-161.09	914.88	247.82	-148.18	1054.8	880.55	98.967	939.7	159.03	-72.823	1011.8	93.929	79.184	841.51	27.254	-66.265	1051.7	25.887	-74.862	1028.3	870.79	-186.29	884.68	61.003	-109.5	971.57	27.023	-116.53	941.11	250.11	-82.09	906.75	68.465	-33.215
514	2.57	882.47	1483.3	-130.91	875.18	1350.6	-62.814	855.54	1252.8	67.587	837.47	904.32	-87.025	836.09	902.33	12.919	1028.3	743.91	255.2	907.12	966.72	-252.97	962.41	339.43	-89.626	937.33	452.32	-169.73	860.71	1086.2	-59.135	963.12	1118.1	-305.85	899.8	962.7	141.79	1005.5	1281.6	-54.954	950.63	876.11	233.05	1058.5	731.14	-377.25	960.03	1144.7	178.08	963.37	881.39	-350.63	951.27	1297.1	93.079	960.25	1292.3	-223.87	1002.7	763.23	-367.95	1048.4	1526.9	-20.915	1073.4	560.49	127.32	1063.5	770.3	-328.11	1109.6	680.68	127.35	1137.5	342.44	43.002	1106.8	256.44	43.066	1090.3	164.33	40.094	1178.3	40.102	74.283	978.99	767.07	225.24	1132.8	62.672	46.305	873.21	1486.5	-7.4591	1050.1	1519.7	-98.738	1040.7	648.65	146.76	1120.8	473.48	117.94	973.58	71.97	37.873	1049.4	782.22	205.8	1099.6	50.596	91.45	1011.4	731.34	168.66	978.71	558.57	-179.1	988.83	650.15	-202.56	1072.8	263.08	107.37	994.99	740.03	-231.36	930.87	1000.5	-319.59	1050.7	95.722	1.5393	996.33	47.316	-63.6	1073.2	1178.6	-56.31	943.55	1002.3	217.75	1049.4	659.42	-161.23	916.28	247.62	-148.16	1060.4	879.66	98.141	940.52	158.74	-72.749	1029.6	90.899	79.044	841.54	27.375	-66.164	1051.8	25.799	-74.764	1033	869.08	-187.68	884.93	61.032	-109.36	971.57	27.005	-116.46	942.47	249.79	-82.029	906.92	68.416	-33.047
515	2.575	888.16	1482.7	-131.15	880.84	1350	-63.087	860.9	1252.2	67.188	842.65	903.89	-86.706	841.61	901.71	13.199	1031.6	743.09	255.68	913.58	965.81	-253.73	964.45	338.97	-89.618	940	452.01	-169.75	866.14	1085.6	-59.391	969.58	1117.4	-306.16	904.19	962.13	141.55	1011.1	1280.9	-55.052	954.37	875.45	233.05	1066.6	731.09	-377.44	964.75	1144	177.96	970.67	880.83	-351.15	956.64	1296.4	92.885	966.16	1291.6	-224.07	1010.6	762.91	-368.36	1053.9	1526.3	-20.836	1080.3	560.11	126.35	1071.2	770.24	-328.26	1116.1	680.43	126.34	1147.5	342.74	41.78	1119.4	255.82	42.217	1105.7	163.26	39.518	1197.4	41.592	73.741	982.49	766.39	225.37	1151.3	62.848	45.889	878.74	1485.9	-7.6475	1055.8	1519.2	-98.651	1047.5	648.15	146.1	1127.9	473.3	116.59	991.76	67.479	37.805	1053.1	781.35	206.43	1118.5	49.795	91.141	1017.9	730.67	168.32	982.08	558	-179.16	992.81	649.44	-202.71	1085.5	261.59	106.62	999.59	739.28	-231.58	937.5	999.84	-320.18	1068	93.425	1.2632	996.41	47.118	-63.373	1078.7	1177.7	-56.331	947.67	1001.7	217.71	1053.4	658.37	-161.37	917.72	247.42	-148.13	1066.1	878.7	97.272	941.35	158.43	-72.656	1047.3	88.099	78.873	841.57	27.508	-66.051	1052	25.683	-74.647	1037.7	867.42	-189.11	885.2	61.065	-109.21	971.58	26.995	-116.38	943.87	249.45	-81.95	907.09	68.368	-32.863
